<?xml version="1.0" encoding="utf-8"?>
<!-- Generator: Adobe Illustrator 23.0.6, SVG Export Plug-In . SVG Version: 6.00 Build 0)  -->
<svg version="1.1" id="circuits" xmlns="http://www.w3.org/2000/svg" xmlns:xlink="http://www.w3.org/1999/xlink" x="0px" y="0px"
	 viewBox="0 0 1200 1200" style="enable-background:new 0 0 1200 1200;" xml:space="preserve">
<style type="text/css">
	.st0{fill:#FFFFFF;}
</style>
<g>
	<path class="st0" d="M441.5,879.1c1.5,0,2.6-1.2,2.6-2.6v-15c0-1.5-1.2-2.6-2.6-2.6h-15c-1.5,0-2.6,1.2-2.6,2.6v15
		c0,1.5,1.2,2.6,2.6,2.6H441.5z"/>
	<path class="st0" d="M277.7,858.8h-37.5c-3.6,0-6.6,2.9-6.6,6.6v37.5c0,3.6,2.9,6.6,6.6,6.6h37.5c3.6,0,6.6-2.9,6.6-6.6v-37.5
		C284.3,861.7,281.4,858.8,277.7,858.8z"/>
	<path class="st0" d="M643.2,778.3h15c1.5,0,2.6-1.2,2.6-2.6v-15c0-1.5-1.2-2.6-2.6-2.6h-15c-1.5,0-2.6,1.2-2.6,2.6v15
		C640.6,777.1,641.8,778.3,643.2,778.3z"/>
	<path class="st0" d="M1153.2,562.2h-15c-1.5,0-2.6,1.2-2.6,2.6v4.7h-94.4v-41.2c0-1.5-1.3-2.8-2.8-2.8H879.1v-41.6h22.4
		c1,0,1.9-0.5,2.4-1.4l20-34.6h95.8c0.9,2.7,3.4,4.7,6.5,4.7c3.8,0,6.8-3.1,6.8-6.8c0-3.8-3.1-6.8-6.8-6.8c-3,0-5.6,2-6.5,4.7h-93.4
		l8.3-14.4h178.3c1.3,6.2,6.8,10.9,13.4,10.9c7.5,0,13.7-6.1,13.7-13.7c0-7.5-6.1-13.7-13.7-13.7c-6.6,0-12.1,4.7-13.4,10.9h-68.3
		v-67.1c0-0.6-0.2-1.1-0.6-1.5l-20.6-20.6v-16.6h46c1.1,2.4,3.4,4,6.2,4c3.8,0,6.8-3.1,6.8-6.8c0-3.8-3.1-6.8-6.8-6.8
		c-2.8,0-5.1,1.7-6.2,4H881.9v-18.7h22.8c6.8,0,12.3-5.5,12.3-12.3v-53.9c0-6.8-5.5-12.3-12.3-12.3h-10v-5.4c0-1.8-1.5-3.3-3.3-3.3
		h-4.9c-1.8,0-3.3,1.5-3.3,3.3v5.4h-5.4v-5.4c0-1.8-1.5-3.3-3.3-3.3h-4.9c-1.8,0-3.3,1.5-3.3,3.3v5.4h-5.4v-5.4
		c0-1.8-1.5-3.3-3.3-3.3h-4.9c-1.8,0-3.3,1.5-3.3,3.3v5.5c-6,0.8-10.7,5.9-10.7,12.2v3.9h-41.5c-0.6,0-1.1,0.2-1.5,0.6L771,256.3
		H521.7c-0.6,0-1.1,0.2-1.5,0.6l-14.6,14.6h-22.9v-26.7h129.4l44.9-44.9h70v-63.3c5.5-1.8,9.4-6.9,9.4-13c0-7.5-6.1-13.7-13.7-13.7
		c-7.5,0-13.7,6.1-13.7,13.7c0,7.1,5.4,12.9,12.3,13.6v57h-66.7l-44.9,44.9H477.1V260h-170c-0.7,0-1.5,0.3-2,0.8L266,299.9H164.7
		c-0.8-6.8-6.6-12.1-13.6-12.1c-7.5,0-13.7,6.1-13.7,13.7c0,7.5,6.1,13.7,13.7,13.7c6.1,0,11.3-4.1,13.1-9.6h103
		c0.7,0,1.5-0.3,2-0.8l39.1-39.1h168.9V321c-2.4,1.1-4,3.4-4,6.2s1.7,5.1,4,6.2v15.8c0,2.9,1.4,5.6,3.7,7.4l39.7,25.9
		c0.9,0.7,1.4,1.7,1.4,2.8V564h-9.1V402.8c0-3.5-1.8-6.8-4.7-8.7l-39.3-25.6c-1.4-0.9-2.2-2.4-2.2-4V295c0-5.7-4.7-10.4-10.4-10.4
		h-25.2c-1.1-2.4-3.4-4-6.2-4c-3.8,0-6.8,3.1-6.8,6.8c0,3.8,3.1,6.8,6.8,6.8c2.8,0,5.1-1.7,6.2-4h25.2c2.7,0,4.8,2.2,4.8,4.8v69.5
		c0,3.5,1.8,6.8,4.7,8.7l39.3,25.6c1.4,0.9,2.2,2.4,2.2,4V564h-6.7v-42c0-1.5-1.3-2.8-2.8-2.8H463V407.8c0-1.5-1.3-2.8-2.8-2.8
		h-28.7v-84.6h-5.6v87.4c0,1.5,1.3,2.8,2.8,2.8h28.7V522v166.6c0,1.5,1.3,2.8,2.8,2.8H541v69.1c0,1.5,1.3,2.8,2.8,2.8h60.3
		c1.5,0,2.8-1.3,2.8-2.8v-45.3h37.6c1.1,2.4,3.4,4,6.2,4c3.8,0,6.8-3.1,6.8-6.8s-3.1-6.8-6.8-6.8c-2.8,0-5.1,1.7-6.2,4h-49.8v-61.2
		h148.5v36.4c0,1.5,1.3,2.8,2.8,2.8h88.4v48.6H691.9l16.6-16.6h66.9V714h-68.1c-0.7,0-1.5,0.3-2,0.8L684,736.2h-61.3
		c-1.5,0-2.8,1.3-2.8,2.8v36.4h-96v-72.8c0-1.5-1.3-2.8-2.8-2.8h-69.3V426.5c0-1.5-1.3-2.8-2.8-2.8h-28.4v-72c0-1.5-1.3-2.8-2.8-2.8
		h-53.5c-1.3-6.2-6.8-10.9-13.4-10.9c-7.5,0-13.7,6.1-13.7,13.7c0,7.5,6.1,13.7,13.7,13.7c6.6,0,12.1-4.7,13.4-10.9H415v72
		c0,1.5,1.3,2.8,2.8,2.8h28.4v213.6h-50.4v-189c0-0.8-0.4-1.6-1-2.1L380.9,440v-41.8c0-1.5-1.3-2.8-2.8-2.8h-54.6l-25.7-31.8
		c-0.5-0.7-1.3-1-2.2-1h-78.5v5.6h77.2l22,27.2H280c-0.7,0-1.5,0.3-2,0.8l-49.2,49.2c-0.5,0.5-0.8,1.2-0.8,2V483
		c-6.2,1.3-10.9,6.8-10.9,13.4c0,7.5,6.1,13.7,13.7,13.7c7.5,0,13.7-6.1,13.7-13.7c0-6.6-4.7-12.1-10.9-13.4v-34.4l47.6-47.6h94.1
		v178.6h-23.8V467.5c0-0.7-0.3-1.5-0.8-2L319,433.9c-1.1-1.1-2.9-1.1-4,0l-21.4,21.4c-0.5,0.5-0.8,1.2-0.8,2v42.6h-4.7
		c-1.5,0-2.6,1.2-2.6,2.6v15c0,1.5,1.2,2.6,2.6,2.6h15c1.5,0,2.6-1.2,2.6-2.6v-15c0-1.5-1.2-2.6-2.6-2.6h-4.7v-41.4l18.6-18.6
		l28.8,28.8v111h-59.3v11.6H125.9v5.6h160.6v21.8H89.7c-1.1-2.4-3.4-4-6.2-4c-3.8,0-6.8,3.1-6.8,6.8s3.1,6.8,6.8,6.8
		c2.8,0,5.1-1.7,6.2-4h202.5v-39h83.1v60.4c0,1.5,1.3,2.8,2.8,2.8h30.8v143.8h-20.5V684.9c0-0.7-0.3-1.5-0.8-2L353,648.4
		c0.4-0.8,0.6-1.7,0.6-2.7c0-3.8-3.1-6.8-6.8-6.8c-3.8,0-6.8,3.1-6.8,6.8c0,3.8,3.1,6.8,6.8,6.8c0.7,0,1.4-0.1,2.1-0.4l33.9,33.9
		v106.2h-57V674.6h-82.2v-9.2c0-6.8-5.5-12.3-12.3-12.3h-53.9c-6.8,0-12.3,5.5-12.3,12.3v34.4H127l-19.3-19.3l-4,4l20.9,20.9H165
		v13.9c0,6.8,5.5,12.3,12.3,12.3h53.9c6.8,0,12.3-5.5,12.3-12.3v-13.9h45.8v67.1L267,794.9h-92.8c-1.1-2.4-3.4-4-6.2-4
		c-3.8,0-6.8,3.1-6.8,6.8c0,3.8,3.1,6.8,6.8,6.8c2.8,0,5.1-1.7,6.2-4h94c0.7,0,1.5-0.3,2-0.8l24-24c0.5-0.5,0.8-1.2,0.8-2v-71.1
		c0-1.5-1.3-2.8-2.8-2.8h-48.6v-19.6h76.6v117.7h137.3v32.9h-65.7c-1.1-2.4-3.4-4-6.2-4c-3.8,0-6.8,3.1-6.8,6.8s3.1,6.8,6.8,6.8
		c2.8,0,5.1-1.7,6.2-4h65.7v20.3h40.6v25.2h250.2l-12,29.4H530.9c-1.1-2.4-3.4-4-6.2-4c-3.8,0-6.8,3.1-6.8,6.8s3.1,6.8,6.8,6.8
		c2.8,0,5.1-1.7,6.2-4H734l-13.2,32.2H457.4v-44.5c0-1.5-1.3-2.8-2.8-2.8H323v-62c0-1.5-1.3-2.8-2.8-2.8H126.9L94,759.4
		c-0.4-1-1.5-1.7-2.6-1.7H64.9c-1.1-6.4-6.7-11.3-13.4-11.3c-7.5,0-13.7,6.1-13.7,13.7s6.1,13.7,13.7,13.7c6.4,0,11.8-4.4,13.2-10.4
		h24.9l32.9,77.7c0.4,1,1.5,1.7,2.6,1.7h192.4v62c0,1.5,1.3,2.8,2.8,2.8H452V952c0,1.5,1.3,2.8,2.8,2.8h185.8v45.1
		c-2.4,1.1-4,3.4-4,6.2c0,3.8,3.1,6.8,6.8,6.8c3.8,0,6.8-3.1,6.8-6.8c0-2.8-1.7-5.1-4-6.2v-45.1h41.1v66.3c0,0.9,0.4,1.8,1.2,2.3
		l40.5,29v30.6c-6.2,1.3-10.9,6.8-10.9,13.4c0,7.5,6.1,13.7,13.7,13.7s13.7-6.1,13.7-13.7c0-6.6-4.7-12.1-10.9-13.4v-32
		c0-0.9-0.4-1.8-1.2-2.3l-40.5-29v-64.9h29.9c1.1,0,2.2-0.7,2.6-1.7l7.6-18.6l25.7,19v28.8c-2.4,1.1-4,3.4-4,6.2
		c0,3.8,3.1,6.8,6.8,6.8c3.8,0,6.8-3.1,6.8-6.8c0-2.8-1.7-5.1-4-6.2V952c0-0.9-0.4-1.7-1.1-2.3l-28-20.7l19.3-47.1h82.9
		c1.5,0,2.8-1.3,2.8-2.8v-42.7h99.3v63.7h-64.1c-1.5,0-2.8,1.3-2.8,2.8v72.8c0,1.5,1.3,2.8,2.8,2.8h35c1.1,2.4,3.4,4,6.2,4
		c3.8,0,6.8-3.1,6.8-6.8c0-3.8-3.1-6.8-6.8-6.8c-2.8,0-5.1,1.7-6.2,4H878v-67.2h64.1c1.5,0,2.8-1.3,2.8-2.8v-69.3
		c0-1.5-1.3-2.8-2.8-2.8H840v-18.9h186.1c0.7,0,1.5-0.3,2-0.8l61.6-61.6l-4-4l-60.8,60.8H840v-43h68.5c1.1,2.4,3.4,4,6.2,4
		c3.8,0,6.8-3.1,6.8-6.8c0-3.8-3.1-6.8-6.8-6.8c-2.8,0-5.1,1.7-6.2,4H840v-52.3h132.3c1.1,2.4,3.4,4,6.2,4c3.8,0,6.8-3.1,6.8-6.8
		c0-3.8-3.1-6.8-6.8-6.8c-2.8,0-5.1,1.7-6.2,4H840v-12.1h24.9c0.7,0,1.5-0.3,2-0.8l35.7-35.7h110v4.7c0,1.5,1.2,2.6,2.6,2.6h15
		c1.5,0,2.6-1.2,2.6-2.6v-15c0-1.5-1.2-2.6-2.6-2.6h-15c-1.5,0-2.6,1.2-2.6,2.6v4.7H901.4c-0.7,0-1.5,0.3-2,0.8l-35.7,35.7h-26.5
		h-88.4v-33.6h49.9c1.5,0,2.8-1.3,2.8-2.8v-27.1c2.4-1.1,4-3.4,4-6.2c0-3.8-3.1-6.8-6.8-6.8s-6.8,3.1-6.8,6.8c0,2.8,1.7,5.1,4,6.2
		v24.3H670.6l18.7-18.7h34.2c1.1,2.4,3.4,4,6.2,4c3.8,0,6.8-3.1,6.8-6.8s-3.1-6.8-6.8-6.8c-2.8,0-5.1,1.7-6.2,4h-35.3
		c-0.7,0-1.5,0.3-2,0.8l-23.5,23.5h-67.9V624c0-1.5-1.3-2.8-2.8-2.8h-28v-35.9h258l21,20.7h109.8c1.1,2.4,3.4,4,6.2,4
		c3.8,0,6.8-3.1,6.8-6.8s-3.1-6.8-6.8-6.8c-2.8,0-5.1,1.7-6.2,4h-55.4v-33.8c0-0.9-0.4-1.7-1.1-2.2l-17.1-12.8v-20.4h156.4v41.2
		c0,1.5,1.3,2.8,2.8,2.8h97.2v4.7c0,1.5,1.2,2.6,2.6,2.6h15c1.5,0,2.6-1.2,2.6-2.6v-15C1155.8,563.4,1154.6,562.2,1153.2,562.2z
		 M390.2,642.9h-9.3V447.3l9.3,7.8V642.9z M238,719.3c0,3.7-3,6.7-6.7,6.7h-53.9c-3.7,0-6.7-3-6.7-6.7v-53.9c0-3.7,3-6.7,6.7-6.7
		h53.9c3.7,0,6.7,3,6.7,6.7L238,719.3L238,719.3z M834.4,876.3h-81.9H548.2l21.9-21.9h60.3v-5.6h-62.6l-27.5,27.5h-36.7v-25.2H463
		v-58.8h-48.6V648.5h31.7v54.2c0,1.5,1.3,2.8,2.8,2.8h36.4v112.1c0,1.5,1.3,2.8,2.8,2.8h192.3v20.9c-2.4,1.1-4,3.4-4,6.2
		c0,3.8,3.1,6.8,6.8,6.8s6.8-3.1,6.8-6.8c0-2.8-1.7-5.1-4-6.2v-23.7V793h57.5v54.4c0,1.5,1.3,2.8,2.8,2.8H786v2.7
		c0,1.5,1.2,2.6,2.6,2.6h15c1.5,0,2.6-1.2,2.6-2.6v-15c0-1.5-1.2-2.6-2.6-2.6h-15c-1.5,0-2.6,1.2-2.6,2.6v6.7h-36.9V793h85.1v83.3
		H834.4z M834.4,787.4h-151c-1.5,0-2.8,1.3-2.8,2.8v24.5H491.1V705.4h27.3v72.8c0,1.5,1.3,2.8,2.8,2.8h101.6c1.5,0,2.8-1.3,2.8-2.8
		v-36.4h208.9L834.4,787.4L834.4,787.4z M1007.7,317.9h11.4v17.5c0,0.6,0.2,1.1,0.6,1.5l20.6,20.6v66.2h-11.4v-67.1
		c0-0.7-0.3-1.5-0.8-2l-20.4-20.4L1007.7,317.9L1007.7,317.9z M844,227.4c0-3.7,3-6.7,6.7-6.7h53.9c3.7,0,6.7,3,6.7,6.7v53.9
		c0,3.7-3,6.7-6.7,6.7h-53.9c-3.7,0-6.7-3-6.7-6.7V227.4z M797.8,235.5h40.6v45.8c0,6.8,5.5,12.3,12.3,12.3h25.6v32.6L840,369.1
		h-18.5v-93.2c0-0.6-0.2-1.1-0.6-1.5L790,243.5L797.8,235.5z M484.1,352.1c-0.9-0.7-1.4-1.7-1.4-2.8v-15.8c2.4-1.1,4-3.4,4-6.2
		c0-2.8-1.7-5.1-4-6.2v-45.3h23.8c0.6,0,1.1-0.2,1.5-0.6l14.6-14.6h249.3c0.6,0,1.1-0.2,1.5-0.6l13.5-13.5l30.3,30.3v92.3h-18v-78.3
		c0-1.5-1.3-2.8-2.8-2.8H535.9v-7.5h-5.6v7.5h-18.6c-1.5,0-2.8,1.3-2.8,2.8v45.1c0,0.7,0.3,1.5,0.8,2l29,29v197h-11.2V385.4
		c0-2.9-1.4-5.6-3.7-7.4L484.1,352.1z M551.6,569.6c3.7,0,6.7,3,6.7,6.7v53.9c0,3.7-3,6.7-6.7,6.7h-53.9c-3.7,0-6.7-3-6.7-6.7v-53.9
		c0-3.7,3-6.7,6.7-6.7H551.6z M589.1,626.7v85.7c0,1.5,1.3,2.8,2.8,2.8h9.5v42.5h-54.7v-69.1c0-1.5-1.3-2.8-2.8-2.8H463v-161h31.9
		v39.5c-5.4,1.3-9.5,6.1-9.5,11.9v6.2H480c-1.8,0-3.3,1.5-3.3,3.3v4.9c0,1.8,1.5,3.3,3.3,3.3h5.4v18.4H480c-1.8,0-3.3,1.5-3.3,3.3
		v4.9c0,1.8,1.5,3.3,3.3,3.3h5.4v6.2c0,6.8,5.5,12.3,12.3,12.3h53.9c6.8,0,12.3-5.5,12.3-12.3v-3.4L589.1,626.7L589.1,626.7z
		 M891.7,568v32.4h-46.5l-20.1-19.8v-42.8h-4.2v41.8h-12.6v-96.8c2.4-1.1,4-3.4,4-6.2c0-3.8-3.1-6.8-6.8-6.8c-3,0-5.5,1.9-6.4,4.6
		h-37V327.2c0-1.5-1.3-2.8-2.8-2.8H580.9c-1.5,0-2.8,1.3-2.8,2.8v137.4h-16.8v5.6h16.8v65c-2.4,1.1-4,3.4-4,6.2
		c0,3.8,3.1,6.8,6.8,6.8c3.8,0,6.8-3.1,6.8-6.8c0-2.8-1.7-5.1-4-6.2V374.7h3.3v-5.6h-3.3v-39h172.8v147.1c0,1.5,1.3,2.8,2.8,2.8
		h40.3c0.7,1.3,1.8,2.3,3.1,2.9v96.8h-17.3v-64.5h-4.2v64.5h-72.6v-31.3c0-0.7-0.3-1.5-0.8-2l-44.1-44.1v-76.4c2.4-1.1,4-3.4,4-6.2
		c0-3.8-3.1-6.8-6.8-6.8c-3.8,0-6.8,3.1-6.8,6.8c0,2.8,1.7,5.1,4,6.2v77.6c0,0.7,0.3,1.5,0.8,2l44.1,44.1v30.1h-62.6v-23.9h23.3
		v-5.6h-23.3v-69.6c2.4-1.1,4-3.4,4-6.2c0-3.8-3.1-6.8-6.8-6.8c-3.8,0-6.8,3.1-6.8,6.8c0,2.8,1.7,5.1,4,6.2v99.1h-71v-3.4
		c0-6.8-5.5-12.3-12.3-12.3h-7.4V365.7c0-0.7-0.3-1.5-0.8-2l-29-29v-41.1h279.2V426H783V308.3c0-1.5-1.3-2.8-2.8-2.8h-206
		c-1.1-2.4-3.4-4-6.2-4c-3.8,0-6.8,3.1-6.8,6.8s3.1,6.8,6.8,6.8c2.8,0,5.1-1.7,6.2-4h203.2v117.7c0,1.5,1.3,2.8,2.8,2.8h16.1h44.8
		V509c-2.4,1.1-4,3.4-4,6.2c0,3.8,3.1,6.8,6.8,6.8c3.8,0,6.8-3.1,6.8-6.8c0-2.8-1.7-5.1-4-6.2v-25h26.6v69c0,0.9,0.4,1.7,1.1,2.2
		L891.7,568z M846.8,478.3v-46.7h34.6c1.1,2.4,3.4,4,6.2,4c3.8,0,6.8-3.1,6.8-6.8c0-3.8-3.1-6.8-6.8-6.8c-2.8,0-5.1,1.7-6.2,4H844
		h-44.8v-34.7h156.9c1.2,0,2.1-0.9,2.1-2.1v-34H954v31.9H799.2v-12.4h140.1c1.5,0,2.8-1.3,2.8-2.8v-35h10.6c1.1,2.4,3.4,4,6.2,4
		c3.8,0,6.8-3.1,6.8-6.8c0-3.8-3.1-6.8-6.8-6.8c-2.8,0-5.1,1.7-6.2,4h-13.4c-1.5,0-2.8,1.3-2.8,2.8v35h-89.2l33.9-40
		c0.4-0.5,0.7-1.1,0.7-1.8V318h120.3v17.5c0,0.7,0.3,1.5,0.8,2l20.4,20.4v65.9H933c-1,0-1.9,0.5-2.4,1.4l-30.7,53.2h-53.1V478.3z"/>
	<path class="st0" d="M504.6,629.1h38.6c4.4,0,8.1-3.6,8.1-8.1v-16.7c0-1.2-0.9-2.1-2.1-2.1c-1.2,0-2.1,0.9-2.1,2.1V621
		c0,2.1-1.7,3.9-3.9,3.9h-38.6c-1.2,0-2.1,0.9-2.1,2.1C502.5,628.1,503.4,629.1,504.6,629.1z"/>
	<path class="st0" d="M508.9,589.5h2.2c1.3,0,2.4-1.1,2.4-2.4v-2.2c0-1.3-1.1-2.4-2.4-2.4h-2.2c-1.3,0-2.4,1.1-2.4,2.4v2.2
		C506.5,588.4,507.6,589.5,508.9,589.5z"/>
	<path class="st0" d="M520.1,589.5h2.2c1.3,0,2.4-1.1,2.4-2.4v-2.2c0-1.3-1.1-2.4-2.4-2.4h-2.2c-1.3,0-2.4,1.1-2.4,2.4v2.2
		C517.6,588.4,518.7,589.5,520.1,589.5z"/>
	<path class="st0" d="M611,548.4c3.8,0,6.8-3.1,6.8-6.8c0-2.8-1.7-5.1-4-6.2V354.5h107.7v149.9c0,1.5,1.3,2.8,2.8,2.8h32.2v46.3
		c-2.4,1.1-4,3.4-4,6.2c0,3.8,3.1,6.8,6.8,6.8s6.8-3.1,6.8-6.8c0-2.8-1.7-5.1-4-6.2v-49.1c0-1.5-1.3-2.8-2.8-2.8h-32.2v-70h12.6V426
		h-12.6v-74.2c0-1.5-1.3-2.8-2.8-2.8H611c-1.5,0-2.8,1.3-2.8,2.8v183.6c-2.4,1.1-4,3.4-4,6.2C604.2,545.3,607.2,548.4,611,548.4z"/>
	<path class="st0" d="M698.9,483.3v-76.6c0-0.7-0.3-1.5-0.8-2l-22.5-22.5c-0.5-0.5-1.2-0.8-2-0.8h-36c-1.5,0-2.8,1.3-2.8,2.8v57.7
		c-2.4,1.1-4,3.4-4,6.2c0,3.8,3.1,6.8,6.8,6.8c3.8,0,6.8-3.1,6.8-6.8c0-2.8-1.7-5.1-4-6.2V387h32l20.9,20.9v75.5
		c-2.4,1.1-4,3.4-4,6.2c0,3.8,3.1,6.8,6.8,6.8c3.8,0,6.8-3.1,6.8-6.8C702.9,486.8,701.3,484.4,698.9,483.3z"/>
	<path class="st0" d="M879.1,231.7h18.2c1.2,0,2.1,0.9,2.1,2.1v20.5c0,1.2,0.9,2.1,2.1,2.1c1.2,0,2.1-0.9,2.1-2.1v-20.5
		c0-3.5-2.8-6.3-6.3-6.3h-18.2c-1.2,0-2.1,0.9-2.1,2.1C877,230.8,877.9,231.7,879.1,231.7z"/>
	<path class="st0" d="M901.5,260.5c-1.2,0-2.1,0.9-2.1,2.1v4c0,1.2,0.9,2.1,2.1,2.1c1.2,0,2.1-0.9,2.1-2.1v-4
		C903.6,261.4,902.6,260.5,901.5,260.5z"/>
	<path class="st0" d="M854.5,273.7h5.5c1,0,1.8-0.8,1.8-1.8v-5.5c0-1-0.8-1.8-1.8-1.8h-5.5c-1,0-1.8,0.8-1.8,1.8v5.5
		C852.7,272.9,853.5,273.7,854.5,273.7z"/>
	<path class="st0" d="M867.1,273.7h5.5c1,0,1.8-0.8,1.8-1.8v-5.5c0-1-0.8-1.8-1.8-1.8h-5.5c-1,0-1.8,0.8-1.8,1.8v5.5
		C865.4,272.9,866.2,273.7,867.1,273.7z"/>
	<ellipse class="st0" cx="194.8" cy="669.7" rx="3" ry="3"/>
	<path class="st0" d="M209.9,666.7c-1.7,0-3,1.4-3,3c0,1.7,1.4,3,3,3c1.7,0,3-1.4,3-3C212.9,668,211.6,666.7,209.9,666.7z"/>
	<circle class="st0" cx="225" cy="669.7" r="3"/>
	<rect x="621.4" y="666" class="st0" width="42.6" height="4.8"/>
	<rect x="600.1" y="931.7" class="st0" width="42.6" height="4.8"/>
	<rect x="328" y="934.1" class="st0" width="42.6" height="4.8"/>
	<rect x="944.6" y="736.4" class="st0" width="42.6" height="4.8"/>
	<rect x="412" y="529.9" class="st0" width="4.8" height="42.6"/>
	<rect x="1060.4" y="360" class="st0" width="4.8" height="42.6"/>
	<rect x="657.7" y="234.9" class="st0" width="42.6" height="4.8"/>
	<rect x="183" y="755.5" class="st0" width="42.6" height="4.8"/>
	<rect x="860.9" y="856.4" class="st0" width="42.6" height="4.8"/>
	<rect x="922.5" y="545.3" class="st0" width="4.8" height="42.6"/>
	<rect x="228" y="529.8" class="st0" width="4.8" height="42.6"/>
	<rect x="381.2" y="288" class="st0" width="4.8" height="42.6"/>
</g>
</svg>
